<svg xmlns="http://www.w3.org/2000/svg" viewBox="0 0 120 120" width="100%" height="100%">
  <defs>
    <!-- 1. Outer Surya Sun Chakra Gold Gradient (Exact Navbar Hex) -->
    <linearGradient id="sunGoldGrad" x1="0%" y1="0%" x2="100%" y2="100%">
      <stop offset="0%" stop-color="#FFF4A3" />
      <stop offset="30%" stop-color="#F59E0B" />
      <stop offset="70%" stop-color="#D97706" />
      <stop offset="100%" stop-color="#92400E" />
    </linearGradient>

    <!-- 2. Central Royal Vedic Blue Medallion Radial Gradient (Exact Navbar Hex) -->
    <radialGradient id="innerCrestGrad" cx="50%" cy="50%" r="50%">
      <stop offset="0%" stop-color="#1E3A8A" />
      <stop offset="65%" stop-color="#172554" />
      <stop offset="100%" stop-color="#0B132B" />
    </radialGradient>

    <!-- 3. Inner Gold Rim Gradient (Exact Navbar Hex) -->
    <linearGradient id="innerGoldRim" x1="0%" y1="0%" x2="100%" y2="100%">
      <stop offset="0%" stop-color="#FDE68A" />
      <stop offset="50%" stop-color="#D97706" />
      <stop offset="100%" stop-color="#92400E" />
    </linearGradient>

    <!-- 4. Luminous Divine Om Glow Filter -->
    <filter id="omGlow" x="-30%" y="-30%" width="160%" height="160%">
      <feDropShadow dx="0" dy="0" stdDeviation="2.2" flood-color="#FEF08A" flood-opacity="0.95"/>
      <feDropShadow dx="0" dy="1" stdDeviation="0.8" flood-color="#000000" flood-opacity="0.45"/>
    </filter>
  </defs>

  <!-- 1. Outer Surya Sun Chakra Rays & Mandala (Exact Navbar, Transparent Background) -->
  <g transform="translate(60,60)">
    <path d="M -3.5 -38 Q -1 -48 0 -58 Q 1 -48 3.5 -38 Z" fill="url(#sunGoldGrad)" transform="rotate(0)" />
    <path d="M -2.2 -38 L 0 -49 L 2.2 -38 Z" fill="url(#sunGoldGrad)" opacity="0.88" transform="rotate(15)" />
    <path d="M -3.5 -38 Q -1 -48 0 -58 Q 1 -48 3.5 -38 Z" fill="url(#sunGoldGrad)" transform="rotate(30)" />
    <path d="M -2.2 -38 L 0 -49 L 2.2 -38 Z" fill="url(#sunGoldGrad)" opacity="0.88" transform="rotate(45)" />
    <path d="M -3.5 -38 Q -1 -48 0 -58 Q 1 -48 3.5 -38 Z" fill="url(#sunGoldGrad)" transform="rotate(60)" />
    <path d="M -2.2 -38 L 0 -49 L 2.2 -38 Z" fill="url(#sunGoldGrad)" opacity="0.88" transform="rotate(75)" />
    <path d="M -3.5 -38 Q -1 -48 0 -58 Q 1 -48 3.5 -38 Z" fill="url(#sunGoldGrad)" transform="rotate(90)" />
    <path d="M -2.2 -38 L 0 -49 L 2.2 -38 Z" fill="url(#sunGoldGrad)" opacity="0.88" transform="rotate(105)" />
    <path d="M -3.5 -38 Q -1 -48 0 -58 Q 1 -48 3.5 -38 Z" fill="url(#sunGoldGrad)" transform="rotate(120)" />
    <path d="M -2.2 -38 L 0 -49 L 2.2 -38 Z" fill="url(#sunGoldGrad)" opacity="0.88" transform="rotate(135)" />
    <path d="M -3.5 -38 Q -1 -48 0 -58 Q 1 -48 3.5 -38 Z" fill="url(#sunGoldGrad)" transform="rotate(150)" />
    <path d="M -2.2 -38 L 0 -49 L 2.2 -38 Z" fill="url(#sunGoldGrad)" opacity="0.88" transform="rotate(165)" />
    <path d="M -3.5 -38 Q -1 -48 0 -58 Q 1 -48 3.5 -38 Z" fill="url(#sunGoldGrad)" transform="rotate(180)" />
    <path d="M -2.2 -38 L 0 -49 L 2.2 -38 Z" fill="url(#sunGoldGrad)" opacity="0.88" transform="rotate(195)" />
    <path d="M -3.5 -38 Q -1 -48 0 -58 Q 1 -48 3.5 -38 Z" fill="url(#sunGoldGrad)" transform="rotate(210)" />
    <path d="M -2.2 -38 L 0 -49 L 2.2 -38 Z" fill="url(#sunGoldGrad)" opacity="0.88" transform="rotate(225)" />
    <path d="M -3.5 -38 Q -1 -48 0 -58 Q 1 -48 3.5 -38 Z" fill="url(#sunGoldGrad)" transform="rotate(240)" />
    <path d="M -2.2 -38 L 0 -49 L 2.2 -38 Z" fill="url(#sunGoldGrad)" opacity="0.88" transform="rotate(255)" />
    <path d="M -3.5 -38 Q -1 -48 0 -58 Q 1 -48 3.5 -38 Z" fill="url(#sunGoldGrad)" transform="rotate(270)" />
    <path d="M -2.2 -38 L 0 -49 L 2.2 -38 Z" fill="url(#sunGoldGrad)" opacity="0.88" transform="rotate(285)" />
    <path d="M -3.5 -38 Q -1 -48 0 -58 Q 1 -48 3.5 -38 Z" fill="url(#sunGoldGrad)" transform="rotate(300)" />
    <path d="M -2.2 -38 L 0 -49 L 2.2 -38 Z" fill="url(#sunGoldGrad)" opacity="0.88" transform="rotate(315)" />
    <path d="M -3.5 -38 Q -1 -48 0 -58 Q 1 -48 3.5 -38 Z" fill="url(#sunGoldGrad)" transform="rotate(330)" />
    <path d="M -2.2 -38 L 0 -49 L 2.2 -38 Z" fill="url(#sunGoldGrad)" opacity="0.88" transform="rotate(345)" />
    <!-- Outer Circular Ring connecting rays -->
    <circle cx="0" cy="0" r="38" fill="none" stroke="url(#sunGoldGrad)" stroke-width="2" />
    <circle cx="0" cy="0" r="39.8" fill="none" stroke="#FFF4A3" stroke-width="0.8" stroke-dasharray="2 3" opacity="0.9" />
    <circle cx="0" cy="-38" r="1.2" fill="#FFF4A3" transform="rotate(0)" />
    <circle cx="0" cy="-38" r="1.2" fill="#FFF4A3" transform="rotate(15)" />
    <circle cx="0" cy="-38" r="1.2" fill="#FFF4A3" transform="rotate(30)" />
    <circle cx="0" cy="-38" r="1.2" fill="#FFF4A3" transform="rotate(45)" />
    <circle cx="0" cy="-38" r="1.2" fill="#FFF4A3" transform="rotate(60)" />
    <circle cx="0" cy="-38" r="1.2" fill="#FFF4A3" transform="rotate(75)" />
    <circle cx="0" cy="-38" r="1.2" fill="#FFF4A3" transform="rotate(90)" />
    <circle cx="0" cy="-38" r="1.2" fill="#FFF4A3" transform="rotate(105)" />
    <circle cx="0" cy="-38" r="1.2" fill="#FFF4A3" transform="rotate(120)" />
    <circle cx="0" cy="-38" r="1.2" fill="#FFF4A3" transform="rotate(135)" />
    <circle cx="0" cy="-38" r="1.2" fill="#FFF4A3" transform="rotate(150)" />
    <circle cx="0" cy="-38" r="1.2" fill="#FFF4A3" transform="rotate(165)" />
    <circle cx="0" cy="-38" r="1.2" fill="#FFF4A3" transform="rotate(180)" />
    <circle cx="0" cy="-38" r="1.2" fill="#FFF4A3" transform="rotate(195)" />
    <circle cx="0" cy="-38" r="1.2" fill="#FFF4A3" transform="rotate(210)" />
    <circle cx="0" cy="-38" r="1.2" fill="#FFF4A3" transform="rotate(225)" />
    <circle cx="0" cy="-38" r="1.2" fill="#FFF4A3" transform="rotate(240)" />
    <circle cx="0" cy="-38" r="1.2" fill="#FFF4A3" transform="rotate(255)" />
    <circle cx="0" cy="-38" r="1.2" fill="#FFF4A3" transform="rotate(270)" />
    <circle cx="0" cy="-38" r="1.2" fill="#FFF4A3" transform="rotate(285)" />
    <circle cx="0" cy="-38" r="1.2" fill="#FFF4A3" transform="rotate(300)" />
    <circle cx="0" cy="-38" r="1.2" fill="#FFF4A3" transform="rotate(315)" />
    <circle cx="0" cy="-38" r="1.2" fill="#FFF4A3" transform="rotate(330)" />
    <circle cx="0" cy="-38" r="1.2" fill="#FFF4A3" transform="rotate(345)" />
  </g>

  <!-- 2. Inner Sacred Om Crest (Exact Navbar Scale & Elements) -->
  <g transform="translate(60,60) scale(0.816)">
    <!-- Central Royal Vedic Blue Disc -->
    <circle cx="0" cy="0" r="46" fill="url(#innerCrestGrad)" />
    <!-- Rich Gold Rim -->
    <circle cx="0" cy="0" r="44" fill="none" stroke="url(#innerGoldRim)" stroke-width="3" />
    <circle cx="0" cy="0" r="39" fill="none" stroke="#FDE68A" stroke-width="1" stroke-dasharray="2.5 2.5" opacity="0.85" />
    <!-- 12 Inner Sacred Lotus Petals -->
    <ellipse cx="0" cy="-33" rx="2.4" ry="4.2" fill="#FDE68A" opacity="0.85" transform="rotate(0)" />
      <ellipse cx="0" cy="-33" rx="2.4" ry="4.2" fill="#FDE68A" opacity="0.85" transform="rotate(30)" />
      <ellipse cx="0" cy="-33" rx="2.4" ry="4.2" fill="#FDE68A" opacity="0.85" transform="rotate(60)" />
      <ellipse cx="0" cy="-33" rx="2.4" ry="4.2" fill="#FDE68A" opacity="0.85" transform="rotate(90)" />
      <ellipse cx="0" cy="-33" rx="2.4" ry="4.2" fill="#FDE68A" opacity="0.85" transform="rotate(120)" />
      <ellipse cx="0" cy="-33" rx="2.4" ry="4.2" fill="#FDE68A" opacity="0.85" transform="rotate(150)" />
      <ellipse cx="0" cy="-33" rx="2.4" ry="4.2" fill="#FDE68A" opacity="0.85" transform="rotate(180)" />
      <ellipse cx="0" cy="-33" rx="2.4" ry="4.2" fill="#FDE68A" opacity="0.85" transform="rotate(210)" />
      <ellipse cx="0" cy="-33" rx="2.4" ry="4.2" fill="#FDE68A" opacity="0.85" transform="rotate(240)" />
      <ellipse cx="0" cy="-33" rx="2.4" ry="4.2" fill="#FDE68A" opacity="0.85" transform="rotate(270)" />
      <ellipse cx="0" cy="-33" rx="2.4" ry="4.2" fill="#FDE68A" opacity="0.85" transform="rotate(300)" />
      <ellipse cx="0" cy="-33" rx="2.4" ry="4.2" fill="#FDE68A" opacity="0.85" transform="rotate(330)" />
    <!-- Central Sacred Divine OM (ॐ) - Luminous, Upright & Beautiful -->
    <text text-anchor="middle" dominant-baseline="central" y="1.5" font-family="'Cormorant Garamond', 'Nirmala UI', 'Tiro Devanagari Hindi', 'Arial Unicode MS', serif" font-size="38" font-weight="900" fill="#FEF08A" filter="url(#omGlow)">ॐ</text>
  </g>
</svg>